<?xml version="1.0" standalone="no"?>
<!DOCTYPE svg PUBLIC "-//W3C//DTD SVG 1.1//EN" "http://www.w3.org/Graphics/SVG/1.1/DTD/svg11.dtd" >
<svg xmlns="http://www.w3.org/2000/svg">
<metadata>
Created by FontPrep 20130207 at Tue May 28 12:55:45 2013
 By Eric Haseltine
Part of the digitally encoded machine readable outline data for producing the Typefaces provided is copyrighted (c) 2009 Linotype Corp., www.linotype.com. All rights reserved. This software is the property of Linotype Corp., and may not be reproduced, used, displayed, modified, disclosed or transferred without the express written approval of Linotype Corp..  The digitally encoded machine readable software for producing the Typefaces licensed to you is copyrighted (c) 1987, 1991, 1993, 1994, 1999 Adobe Systems. All Rights Reserved. This software is the property of Adobe Systems Incorporated and its licensors, and may not be reproduced, used, displayed, modified, disclosed or transferred without the express written approval of Adobe. Univers is a trademark of Linotype Corp. registered in the U.S. Patent and Trademark Office and may be registered in certain other jurisdictions in the name of Linotype Corp. or its licensee Linotype GmbH. This typeface is original artwork of Adrian Frutiger. The design may be protected in certain jurisdictions.
</metadata>
<defs>
<font id="db86047967d8db775da899f03dde6aa6" >
  <font-face 
    font-family="UniversLTW01-75Black"
    font-weight="400"
    font-stretch="normal"
    units-per-em="2048"
    panose-1="2 11 8 4 3 5 2 2 2 4"
    ascent="1565"
    descent="-483"
    x-height="1026"
    cap-height="1479"
    bbox="-115 -512 2032 2019"
    underline-thickness="102"
    underline-position="-102"
    unicode-range="U+000D-2122"
  />
<missing-glyph horiz-adv-x="0" 
 />
    <glyph glyph-name=".notdef" horiz-adv-x="0" 
 />
    <glyph glyph-name="glyph1" horiz-adv-x="0" 
 />
    <glyph glyph-name="uni000D" unicode="&#xd;" horiz-adv-x="0" 
 />
    <glyph glyph-name="space" unicode=" " horiz-adv-x="681" 
 />
    <glyph glyph-name="exclam" unicode="!" horiz-adv-x="909" 
d="M272 305h361v-305h-361v305zM670 1479l-72 -1039h-295l-76 1039h443z" />
    <glyph glyph-name="quotedbl" unicode="&#x22;" horiz-adv-x="1024" 
d="M629 874l-60 545h320l-60 -545h-200zM223 874l-59 545h321l-59 -545h-203z" />
    <glyph glyph-name="numbersign" unicode="#" 
d="M752 584l45 235h-183l-45 -235h183zM1292 1063v-244h-211l-43 -235h164v-244h-209l-63 -340h-285l62 340h-183l-61 -340h-287l64 340h-166v244h211l45 235h-166v244h211l65 356h285l-66 -356h183l65 356h285l-66 -356h166z" />
    <glyph glyph-name="dollar" unicode="$" 
d="M834.5 466q-42.5 29 -76.5 36l-33 10v-291q78 12 115 54t37 102t-42.5 89zM487 987q0 -47 32 -83t85 -48v262q-117 -29 -117 -131zM455 424q0 -162 149 -199v314l-129 34q-158 42 -224.5 91t-104 115.5t-37.5 154.5q0 179 123 300t372 128v184h121v-184q399 -16 442 -177
t43 -243h-372q0 94 -36.5 130.5t-76.5 43.5v-293q191 -43 363 -101t172 -321q0 -158 -104.5 -267t-219.5 -131.5t-211 -29.5v-182h-121v182q-336 9 -427 159.5t-91 291.5h369z" />
    <glyph glyph-name="percent" unicode="%" horiz-adv-x="2048" 
d="M1548 1536l-768 -1561h-227l776 1561h219zM1548 223q26 -39 73 -39q46 0 67.5 52t21.5 160q0 177 -23.5 222.5t-68.5 45.5t-70.5 -49.5t-25.5 -201.5q0 -151 26 -190zM1264 396q0 52 2 92t17 118t94 157t244 79t257 -103q48 -55 70 -118.5t22 -183.5t-19.5 -188.5
t-59.5 -122.5t-111.5 -90t-151.5 -36q-174 0 -268 102q-59 66 -77.5 154t-18.5 140zM493 856q91 0 91 210q0 172 -23 220.5t-69 48.5q-47 0 -63.5 -33.5t-25 -87t-8.5 -136.5q0 -138 25.5 -180t72.5 -42zM137 1074q0 58 5 126t64.5 189.5t285.5 121.5q205 0 278.5 -117.5
t73.5 -262.5q0 -144 -18.5 -211.5t-59.5 -121.5t-112.5 -90t-151.5 -36q-172 0 -269 102q-59 63 -77.5 152.5t-18.5 147.5z" />
    <glyph glyph-name="ampersand" unicode="&#x26;" horiz-adv-x="1820" 
d="M520 404q0 -76 61 -128.5t192 -52.5t206 90l-274 271q-109 -49 -147 -95.5t-38 -84.5zM944 1180q0 48 -46 79t-110 31t-107.5 -33.5t-43.5 -86.5t47 -101.5t100 -93.5q90 45 125 101t35 104zM1366 815h354q-9 -152 -55 -264t-164 -234l299 -317h-497l-89 96
q-96 -55 -207 -90t-325 -35t-335.5 62.5t-158.5 110.5t-67.5 110t-30.5 154t37 158.5t90 112.5t113.5 74.5t107.5 49.5q-205 164 -205 347t157 274.5t398 91.5q402 0 470.5 -140.5t68.5 -221.5q0 -141 -72 -223.5t-206 -174.5l211 -209q106 133 106 268z" />
    <glyph glyph-name="quotesingle" unicode="'" horiz-adv-x="681" 
d="M240 874l-60 545h322l-60 -545h-202z" />
    <glyph glyph-name="parenleft" unicode="(" horiz-adv-x="681" 
d="M461 275.5q35 -188.5 147 -525.5h-270q-105 228 -173.5 443t-68.5 446q0 303 102.5 557t141.5 346h266q-110 -372 -145 -540t-35 -353t35 -373.5z" />
    <glyph glyph-name="parenright" unicode=")" horiz-adv-x="681" 
d="M586 655q0 -300 -102.5 -556.5t-141.5 -348.5h-266q108 364 144 537t36 308q0 235 -35.5 426t-146.5 521h270q242 -510 242 -887z" />
    <glyph glyph-name="asterisk" unicode="*" horiz-adv-x="1138" 
d="M649 1505l223 -139l-190 -209l281 62v-265l-275 64l195 -225l-234 -125l-88 276l-90 -278l-219 129l190 223l-280 -60v261l284 -62l-192 215l219 131l90 -280z" />
    <glyph glyph-name="plus" unicode="+" horiz-adv-x="1351" 
d="M530 408h-405v286h405v408h293v-408h404v-286h-404v-408h-293v408z" />
    <glyph glyph-name="comma" unicode="," horiz-adv-x="681" 
d="M567 305l-241 -549h-279l135 549h385z" />
    <glyph glyph-name="hyphen" unicode="-" horiz-adv-x="681" 
d="M627 662v-244h-582v244h582z" />
    <glyph glyph-name="period" unicode="." horiz-adv-x="681" 
d="M147 305h361v-305h-361v305z" />
    <glyph glyph-name="slash" unicode="/" horiz-adv-x="569" 
d="M-63 -33l450 1522h256l-448 -1522h-258z" />
    <glyph glyph-name="zero" unicode="0" 
d="M507.5 355q44.5 -113 164.5 -113q47 0 91 21.5t74 76.5t42 168t12 167q-1 239 -21 313t-29.5 100t-43.5 64t-119 38q-43 0 -82 -14.5t-86 -92.5t-47 -347q0 -268 44.5 -381zM96.5 1003.5q35.5 155.5 134.5 274.5q150 182 450 182t439 -184q81 -99 124.5 -230t43.5 -306
q0 -357 -147 -563t-467 -206q-123 0 -239 40t-185 120t-104 158t-60 182.5t-25 240.5t35.5 291.5z" />
    <glyph glyph-name="one" unicode="1" 
d="M963 1421v-1421h-396v1055q-95 -81 -208 -125.5t-138 -50.5v315q126 37 212 84.5t198 142.5h332z" />
    <glyph glyph-name="two" unicode="2" 
d="M821 1034q0 158 -152 158q-98 0 -128.5 -48t-31.5 -55l-9 -63h-400q0 149 103 274q77 94 213.5 129t271.5 35q330 0 465 -174q76 -95 76 -217q0 -123 -50.5 -218t-139.5 -187.5t-211.5 -185.5t-270.5 -199h676v-283h-1161v295q426 310 542.5 423t155.5 169q51 85 51 147z
" />
    <glyph glyph-name="three" unicode="3" 
d="M556 608q-52 0 -91 -4v254q248 -12 300 29t71.5 76t19.5 95t-53 103t-153 43t-133.5 -56t-35.5 -108h-395q8 214 170.5 320t426.5 106t413 -104.5t149 -271.5q0 -130 -92 -226t-238 -112v-11q29 -4 88.5 -15t165 -72t105.5 -256t-150 -304q-85 -56 -179 -88.5t-279 -32.5
t-304.5 39t-206.5 131t-94.5 167t-9.5 100h398q2 -70 47 -121t161 -51t168 55t52 128t-35 110.5t-84 54t-99.5 19.5t-102.5 3z" />
    <glyph glyph-name="four" unicode="4" 
d="M727 543v583l-428 -583h428zM721 283h-686v333l600 811h455v-884h229v-260h-229v-283h-369v283z" />
    <glyph glyph-name="five" unicode="5" 
d="M669 244q115 0 162 92q31 64 31 128q0 243 -172 243q-86 0 -126 -39t-48 -86l-393 4l29 833h1024v-278h-668l-25 -348q47 85 140 130q94 46 184 46q193 0 324 -116.5t131 -359.5q0 -242 -156 -389q-148 -135 -418 -135q-213 0 -324.5 54.5t-154.5 100.5
q-109 117 -109 282h392q4 -82 53 -122t124 -40z" />
    <glyph glyph-name="six" unicode="6" 
d="M707 715q-111 0 -169.5 -67.5t-58.5 -185.5t65 -172t164 -54t157.5 65t58.5 189t-71 174.5t-146 50.5zM813 958q216 0 343.5 -127.5t127.5 -336.5q0 -147 -55 -248t-176 -188t-353 -87q-337 0 -489 230q-135 201 -135 512q0 508 225 627.5t408 119.5q322 0 413.5 -133
t98.5 -258h-375q-7 87 -76 129q-33 21 -81 21q-84 0 -128 -42.5t-76 -113.5q-31 -72 -33.5 -148.5t-2.5 -134.5q47 70 125 124t239 54z" />
    <glyph glyph-name="seven" unicode="7" 
d="M94 1415h1159v-287l-565 -1128h-457l598 1126h-735v289z" />
    <glyph glyph-name="eight" unicode="8" 
d="M672 227q130 0 184.5 59.5t54.5 138.5t-57 140.5t-181 61.5t-179.5 -61t-55.5 -140q0 -127 81 -163t153 -36zM657 872q87 0 125.5 23t62 59t23.5 77q0 80 -44.5 135t-136.5 55q-91 0 -148.5 -42t-57.5 -122t44.5 -132.5t131.5 -52.5zM119 1092q0 88 45 157t83 95
q169 114 387 114q209 0 333 -40t200 -142q63 -82 64 -193q0 -178 -109.5 -246.5t-199.5 -84.5v-11q174 -18 267 -110t93 -236q0 -188 -145 -306t-460 -118t-464.5 119t-149.5 295q0 131 89.5 230.5t285.5 132.5v6q-217 20 -268 135t-51 203z" />
    <glyph glyph-name="nine" unicode="9" 
d="M649 756q117 0 171 62.5t54 158.5q0 148 -77.5 186.5t-143.5 38.5q-115 0 -168 -64.5t-53 -156.5q0 -147 78 -186t139 -39zM555 512q-143 0 -224 36t-140 96q-128 130 -128 336t163 344t421 138t379.5 -99.5t167.5 -213.5q82 -200 82 -442q0 -344 -154 -537
q-158 -203 -493 -203q-137 0 -257 34t-210 126q-54 58 -68 111t-20 127h377q2 -59 52 -100.5t134 -41.5q152 0 198.5 106.5t51.5 327.5q-126 -145 -332 -145z" />
    <glyph glyph-name="colon" unicode=":" horiz-adv-x="681" 
d="M162 1026h360v-305h-360v305zM162 305h360v-305h-360v305z" />
    <glyph glyph-name="semicolon" unicode=";" horiz-adv-x="681" 
d="M567 305l-241 -549h-279l135 549h385zM162 1026h356v-305h-356v305z" />
    <glyph glyph-name="less" unicode="&#x3c;" horiz-adv-x="1351" 
d="M125 700l1102 428v-307l-760 -270l760 -268v-312l-1102 430v299z" />
    <glyph glyph-name="equal" unicode="=" horiz-adv-x="1351" 
d="M125 453h1102v-289h-1102v289zM125 938h1102v-289h-1102v289z" />
    <glyph glyph-name="greater" unicode="&#x3e;" horiz-adv-x="1351" 
d="M127 -29v312l758 268l-758 270v307l1100 -428v-299z" />
    <glyph glyph-name="question" unicode="?" horiz-adv-x="1138" 
d="M303 305h361v-305h-361v305zM393 1253q-125 0 -241 -34v266q168 31 294 31q616 0 615 -396q0 -37 -9 -122t-282 -275q-115 -81 -119 -133.5t-4 -83.5v-111h-321v197q0 45 11.5 70t63.5 77l158 164q39 41 63.5 76t24.5 101t-64.5 119.5t-189.5 53.5z" />
    <glyph glyph-name="at" unicode="@" horiz-adv-x="1515" 
d="M940 929q0 40 -30.5 61.5t-70.5 21.5t-81 -39t-85 -126t-44 -184q0 -96 31.5 -125.5t64.5 -29.5q74 0 123 96q92 207 92 325zM808 -35q-184 0 -334 63.5t-254.5 170t-159 244t-54.5 293.5t64.5 302t177 253.5t266.5 169t316 61.5q318 0 523.5 -171t205.5 -454
q0 -216 -129 -377.5t-316 -161.5q-105 0 -143.5 56.5t-40.5 107.5q-57 -102 -133.5 -139t-140.5 -37q-133 0 -212 88.5t-79 237.5q0 193 124 347.5t299 154.5q70 0 130.5 -32t89.5 -95l24 92h223l-120 -416q-4 -18 -10.5 -38.5t-14.5 -53.5t-8 -52q0 -40 25 -56.5t56 -16.5
q30 0 70.5 28.5t100 117t59.5 233.5t-47 236t-164.5 182.5t-353.5 91.5q-308 0 -501 -195t-193 -470t181.5 -456.5t485.5 -181.5t563 203l76 -100q-164 -119 -316 -174.5t-336 -55.5z" />
    <glyph glyph-name="A" unicode="A" horiz-adv-x="1705" 
d="M1024 569l-190 621h-7l-204 -621h401zM600 1479h500l583 -1479h-462l-103 297h-592l-100 -297h-410z" />
    <glyph glyph-name="B" unicode="B" horiz-adv-x="1478" 
d="M963 442q0 179 -224 179h-215v-351h228q211 0 211 172zM522 883h193q108 0 143 19t56.5 57t21.5 79q0 90 -57 138q-35 27 -68 30.5t-66 3.5h-223v-327zM125 1479h592q186 0 405 -37.5t219 -361.5q0 -74 -38.5 -136.5t-101 -106.5t-175.5 -69v-4q133 -23 201.5 -69
t111.5 -115.5t43 -176.5t-32.5 -168t-71.5 -101t-91 -68q-82 -44 -177 -55t-232 -11h-653v1479z" />
    <glyph glyph-name="C" unicode="C" horiz-adv-x="1593" 
d="M836 1219q-170 0 -246 -135t-76 -363q0 -342 120 -402.5t201 -60.5t128 25.5t72.5 60.5t33.5 71t12 58h426q0 -210 -151.5 -356t-513.5 -146q-238 0 -438.5 100.5t-257 305t-56.5 355.5q0 349 186 560q115 129 257.5 173t313.5 44q357 0 529 -180q123 -128 123 -315h-422
q-14 113 -82.5 159t-158.5 46z" />
    <glyph glyph-name="D" unicode="D" horiz-adv-x="1705" 
d="M569 285h176q447 0 447 463q0 168 -54.5 259t-129 133t-152.5 49t-125 7l-162 2v-913zM150 1479h624q383 0 563 -123q279 -187 279 -613q0 -392 -199 -563.5t-399.5 -175.5t-239.5 -4h-628v1479z" />
    <glyph glyph-name="E" unicode="E" 
d="M141 1475h1110v-283h-704v-307h663v-283h-663v-315h721v-287h-1127v1475z" />
    <glyph glyph-name="F" unicode="F" horiz-adv-x="1251" 
d="M145 1475h1047v-285h-639v-344h594v-285h-594v-561h-408v1475z" />
    <glyph glyph-name="G" unicode="G" horiz-adv-x="1705" 
d="M80 731q0 250 121.5 462t332.5 267.5t382 55.5q370 0 538 -173q111 -122 111 -307h-416q-15 105 -87 151t-172 46q-194 0 -287 -143t-93 -369t118.5 -349.5t319.5 -123.5q89 0 228 24v287h-314v281h699v-791q-341 -82 -673 -82q-333 0 -534 154q-141 106 -207.5 269
t-66.5 341z" />
    <glyph glyph-name="H" unicode="H" horiz-adv-x="1593" 
d="M133 1479h414v-578h493v578h416v-1479h-416v598h-495v-598h-412v1479z" />
    <glyph glyph-name="I" unicode="I" horiz-adv-x="681" 
d="M123 1479h422v-1479h-422v1479z" />
    <glyph glyph-name="J" unicode="J" horiz-adv-x="1251" 
d="M418 473q0 -83 22.5 -146t114.5 -63q138 0 144 96.5t6 124.5v994h415v-979q0 -240 -100 -357q-157 -176 -480 -176t-462 201q-63 93 -65.5 184.5t-2.5 120.5h408z" />
    <glyph glyph-name="K" unicode="K" horiz-adv-x="1593" 
d="M156 1479h415v-650l473 650h486l-510 -652l551 -827h-508l-492 786v-786h-415v1479z" />
    <glyph glyph-name="L" unicode="L" horiz-adv-x="1251" 
d="M137 1479h416v-1188h664v-291h-1080v1479z" />
    <glyph glyph-name="M" unicode="M" horiz-adv-x="2048" 
d="M129 1479h645l246 -1002l233 1002l643 2l2 -1481h-387l19 1241l-350 -1241h-369l-338 1251l10 -1251h-354v1479z" />
    <glyph glyph-name="N" unicode="N" horiz-adv-x="1705" 
d="M137 1479h565l500 -1102l-4 1102h358v-1479h-552l-510 1149l4 -1149h-361v1479z" />
    <glyph glyph-name="O" unicode="O" horiz-adv-x="1705" 
d="M846 266q342 0 342 339.5t-39 413t-55 97.5q-79 107 -255 107q-177 0 -256 -135t-79 -350q0 -472 342 -472zM82 733q0 234 66.5 372t136.5 209q119 121 279.5 163.5t297.5 42.5q401 0 575.5 -230.5t174.5 -554.5q0 -221 -71 -369.5t-229 -274.5t-476 -126t-536 191
t-218 577z" />
    <glyph glyph-name="P" unicode="P" horiz-adv-x="1478" 
d="M561 815h182q116 0 189.5 34t73.5 158t-71.5 160.5t-193.5 36.5h-180v-389zM150 1479h679q183 0 315.5 -39.5t205.5 -166t73 -248.5t-26.5 -192.5t-92 -155.5t-189 -113.5t-288.5 -28.5l-266 -3v-532h-411v1479z" />
    <glyph glyph-name="Q" unicode="Q" horiz-adv-x="1705" 
d="M504 738q0 -472 342 -472q194 0 268 138t74 310t-29 260.5t-69 145.5q-71 103 -249 103q-179 0 -258 -135t-79 -350zM780 -18q-312 0 -503 201t-191 504t115 503q104 187 287.5 257.5t371.5 70.5q293 0 522.5 -166.5t229.5 -560.5q0 -232 -80 -347.5t-129 -153.5t-78 -59
q136 44 354 35v-264h-230q-230 0 -359 -6z" />
    <glyph glyph-name="R" unicode="R" horiz-adv-x="1478" 
d="M545 844h153q139 0 171 11q108 37 108 178q0 113 -75 143t-204 30h-153v-362zM133 1479h684q199 0 272.5 -15.5t112 -37.5t62.5 -46q110 -110 110 -270q0 -135 -58 -239t-302 -136v-8q195 -7 246 -76t63.5 -134t22.5 -127t23 -166.5t50 -223.5h-444q-24 92 -40 247
q-15 155 -23.5 201t-37 88t-157.5 42h-172v-578h-412v1479z" />
    <glyph glyph-name="S" unicode="S" horiz-adv-x="1478" 
d="M498 471q0 -84 46 -156.5t188 -72.5t188.5 52t46.5 110t-27 93t-100 56l-363 94q-143 37 -211.5 89t-111.5 126t-43 178q0 211 156.5 343.5t465.5 132.5q383 0 485.5 -136t110.5 -216.5t8 -119.5h-415q0 128 -60.5 166.5t-142.5 38.5t-134.5 -45t-52.5 -98
q0 -85 44.5 -116.5t105.5 -47.5l276 -72q200 -49 275.5 -104t115.5 -130t40 -195q0 -233 -181 -353.5t-473 -120.5q-379 0 -536 176q-113 124 -113 328h412z" />
    <glyph glyph-name="T" unicode="T" 
d="M471 1186h-451v293h1326v-293h-461v-1186h-414v1186z" />
    <glyph glyph-name="U" unicode="U" horiz-adv-x="1705" 
d="M860 256q295 0 295 358v865h399v-856q0 -317 -114 -451q-169 -211 -592 -211q-465 0 -561.5 159t-119 248.5t-22.5 268.5l2 842h414v-879q0 -149 44 -217q83 -127 255 -127z" />
    <glyph glyph-name="V" unicode="V" horiz-adv-x="1593" 
d="M18 1479h453l336 -1071l354 1071h408l-539 -1479h-489z" />
    <glyph glyph-name="W" unicode="W" horiz-adv-x="2048" 
d="M16 1479h408l137 -1078l242 1078h502l219 -1069l137 1069h371l-254 -1479h-492l-256 1096l-272 -1096h-490z" />
    <glyph glyph-name="X" unicode="X" horiz-adv-x="1705" 
d="M496 0h-480l562 770l-521 709h529l288 -459l300 459h471l-527 -701l553 -778h-524l-324 526z" />
    <glyph glyph-name="Y" unicode="Y" horiz-adv-x="1593" 
d="M989 0h-414v541l-563 938h475l324 -621l334 621h422l-578 -957v-522z" />
    <glyph glyph-name="Z" unicode="Z" 
d="M76 1190v285h1204v-316l-762 -872h778v-287h-1261v326l737 864h-696z" />
    <glyph glyph-name="bracketleft" unicode="[" horiz-adv-x="681" 
d="M121 1546h569v-209h-280v-1376h280v-213h-569v1798z" />
    <glyph glyph-name="backslash" unicode="\" horiz-adv-x="569" 
d="M-63 1489h256l450 -1522h-258z" />
    <glyph glyph-name="bracketright" unicode="]" horiz-adv-x="681" 
d="M-29 -39h279v1376h-279v209h570v-1798h-570v213z" />
    <glyph glyph-name="asciicircum" unicode="^" horiz-adv-x="1351" 
d="M545 1479h262l373 -893h-308l-198 542l-195 -542h-307z" />
    <glyph glyph-name="underscore" unicode="_" horiz-adv-x="1024" 
d="M0 -154h1024v-102h-1024v102z" />
    <glyph glyph-name="grave" unicode="`" horiz-adv-x="681" 
d="M-102 1487h426l219 -297h-264z" />
    <glyph glyph-name="a" unicode="a" horiz-adv-x="1251" 
d="M444 333q0 -56 36 -97t106 -41q31 0 77 18t78 88t25 184q-159 0 -212.5 -17t-81.5 -48t-28 -87zM1126 197q0 -60 21 -197h-369q-12 58 -12 147q-50 -75 -125 -121t-191 -46q-203 0 -293.5 88.5t-90.5 230.5q0 303 268 337t434 28q0 105 -24.5 159t-104.5 54
q-53 0 -96 -34t-41 -122h-369q0 87 25.5 135.5t54.5 79.5q59 61 172 95t270 34t285.5 -56t157 -152.5t28.5 -180.5v-479z" />
    <glyph glyph-name="b" unicode="b" 
d="M887 522q0 309 -185 309q-125 0 -163.5 -102t-38.5 -209q0 -184 63 -247.5t133 -63.5t109 40t60.5 100.5t21.5 172.5zM125 144v1335h387v-559q66 83 158 109t167 26q135 0 230 -60.5t144 -143.5t61 -165t12 -200q0 -232 -133 -371q-126 -138 -332 -138t-334 175l-12 -152
h-360q12 129 12 144z" />
    <glyph glyph-name="c" unicode="c" horiz-adv-x="1251" 
d="M795 668q0 72 -31.5 124t-95.5 52t-97.5 -25.5t-60.5 -85t-27 -186.5q0 -210 44 -282t126 -72q123 0 131.5 90t8.5 118h389q0 -196 -141.5 -311t-387.5 -115q-247 0 -407 138.5t-160 414.5t163.5 405.5t428.5 129.5q264 0 397 -148q60 -63 77.5 -121t23.5 -126h-381z" />
    <glyph glyph-name="d" unicode="d" 
d="M653 203q107 0 154 89.5t47 225.5q0 215 -70 261t-128 46t-96 -35.5t-58.5 -85t-26.5 -102.5t-6 -90t6 -90t25.5 -101.5t57.5 -83t95 -34.5zM1235 256q0 -91 10 -256h-364l-9 152q-51 -74 -125 -125.5t-215 -51.5q-248 0 -355 157.5t-107 378.5q0 220 107.5 380
t359.5 160q157 0 222.5 -58.5t90.5 -85.5v572h385v-1223z" />
    <glyph glyph-name="e" unicode="e" horiz-adv-x="1251" 
d="M480 793.5q-35 -66.5 -44 -148.5h371q-7 85 -41.5 150t-142.5 65t-143 -66.5zM432 436q0 -91 36 -170.5t161 -79.5q78 0 123 39t53 111h358q-19 -183 -168.5 -271t-367.5 -88q-270 0 -410.5 132.5t-140.5 388.5q0 410 202.5 488.5t326.5 78.5q219 0 333 -70t174 -192
q35 -66 46 -149t11 -218h-737z" />
    <glyph glyph-name="f" unicode="f" horiz-adv-x="909" 
d="M773 1237q-110 0 -133.5 -56t-23.5 -157h248v-250h-248v-774h-376v774h-199v250h205q-2 92 9 276.5t392 184.5q131 0 227 -12v-248q-37 12 -101 12z" />
    <glyph glyph-name="g" unicode="g" 
d="M858 546q0 292 -186 292q-98 0 -148.5 -81t-50.5 -203t26.5 -178.5t65.5 -86t106 -29.5t104.5 35t60 93t22.5 158zM877 1034h362v-958q0 -114 -34 -206t-130 -161q-161 -115 -424 -115q-188 0 -355 69.5t-167 281.5h363q2 -59 42.5 -95t118.5 -36q134 0 172.5 69
t38.5 180v136q-67 -101 -198.5 -147.5t-300.5 9.5t-229 198t-60 265q0 244 119.5 386.5t345.5 142.5t336 -174v155z" />
    <glyph glyph-name="h" unicode="h" 
d="M522 915q136 136 317 136t291 -105q94 -85 98.5 -190t4.5 -158v-598h-383v553q0 109 -28 181.5t-132 72.5q-123 0 -158 -132q-14 -54 -14 -210v-465h-385v1479h389v-564z" />
    <glyph glyph-name="i" unicode="i" horiz-adv-x="681" 
d="M141 1028h385v-1028h-385v1028zM137 1475h393v-275h-393v275z" />
    <glyph glyph-name="j" unicode="j" horiz-adv-x="681" 
d="M145 1475h394v-275h-394v275zM147 20v1008h390v-1098q0 -183 -85 -257t-305 -74h-45q-45 0 -92 4v252q128 -15 132.5 58t4.5 107z" />
    <glyph glyph-name="k" unicode="k" 
d="M152 1479h376v-906l353 455h426l-351 -434l402 -594h-463l-367 571v-571h-376v1479z" />
    <glyph glyph-name="l" unicode="l" horiz-adv-x="681" 
d="M141 1479h385v-1479h-385v1479z" />
    <glyph glyph-name="m" unicode="m" horiz-adv-x="2048" 
d="M510 586v-586h-385v795l-8 233h381l4 -170q107 195 348 195q150 0 224.5 -61.5t99.5 -129.5q121 193 351 193t335 -160q41 -66 48 -154t7 -178v-563h-385v582q0 111 -25.5 169t-125.5 58t-146 -86q-21 -38 -21 -145v-578h-385v586q0 102 -25 162.5t-128 60.5
q-164 0 -164 -223z" />
    <glyph glyph-name="n" unicode="n" 
d="M686 807q-172 0 -172 -217v-590h-383v809l-10 219h385l4 -158q49 79 99 112.5t106.5 51t166.5 17.5t187.5 -47.5t112.5 -114t41 -140t6 -126.5v-623h-385v590q0 93 -28 155t-130 62z" />
    <glyph glyph-name="o" unicode="o" 
d="M680 844q-203 0 -203 -328q0 -326 200 -326t200 327t-197 327zM78 554q0 83 37 182.5t153.5 213t396.5 113.5q279 0 444 -135t165 -395t-150 -410q-66 -63 -165 -105.5t-265 -42.5q-309 0 -469 152q-120 115 -133.5 229.5t-13.5 197.5z" />
    <glyph glyph-name="p" unicode="p" 
d="M686 209q195 0 195 330q0 184 -61.5 239.5t-129.5 55.5t-107.5 -41t-61 -103t-21.5 -133q0 -153 36 -250.5t150 -97.5zM834 1055q281 0 361.5 -181.5t80.5 -335.5q0 -284 -133 -421t-317 -137q-183 0 -242.5 62t-75.5 81v-512h-385v1249l-8 168h377l4 -145q14 18 37.5 48
t92 77t208.5 47z" />
    <glyph glyph-name="q" unicode="q" 
d="M654 827q-188 0 -189 -315q0 -195 60.5 -253t124.5 -58t129 60t65 257q0 119 -37 214t-153 95zM1223 -389h-383v520q-16 -18 -40 -44t-88.5 -66.5t-171.5 -40.5q-210 0 -342 130t-132 379t114.5 405.5t317.5 156.5t272.5 -76t85.5 -96l4 149h373l-3 -35z" />
    <glyph glyph-name="r" unicode="r" horiz-adv-x="909" 
d="M759 713q-59 0 -149 -47.5t-90 -229.5v-436h-383v809l-10 219h375l6 -213q81 211 205.5 216t156.5 5v-329q-52 6 -111 6z" />
    <glyph glyph-name="s" unicode="s" horiz-adv-x="1138" 
d="M440 334q0 -156 129 -156q66 0 91.5 35t25.5 79t-40 66.5t-105 38.5l-209 60q-157 38 -203.5 118t-46.5 159q0 150 125 237q125 86 344 86t347.5 -76.5t139.5 -269.5h-364q0 69 -14 97q-28 58 -107 58q-45 0 -80 -21.5t-35 -67.5t29 -66.5t76 -32.5l274 -76
q100 -27 147.5 -67.5t71 -90t23.5 -130.5t-31 -141t-116.5 -131t-340.5 -71q-222 0 -368.5 73t-143.5 290h381z" />
    <glyph glyph-name="t" unicode="t" horiz-adv-x="909" 
d="M599 -16q-227 0 -302.5 70.5t-75.5 230.5v493h-194v246h200v160l371 147v-307h244v-246h-248v-356q0 -108 24.5 -146t124.5 -38q44 0 97 6v-242q-117 -18 -241 -18z" />
    <glyph glyph-name="u" unicode="u" 
d="M510 -18q-236 0 -307.5 132t-71.5 335v579h383v-600q0 -81 27 -141t130 -60t130.5 62t27.5 143v596h385v-850q5 -82 5 -84l2 -94h-379l-8 160q-102 -160 -196.5 -169t-127.5 -9z" />
    <glyph glyph-name="v" unicode="v" horiz-adv-x="1251" 
d="M18 1028h414l205 -721l219 721h363l-390 -1028h-419z" />
    <glyph glyph-name="w" unicode="w" horiz-adv-x="1933" 
d="M14 1028h394l167 -729l183 729h430l180 -725l182 725h344l-323 -1028h-430l-189 717l-202 -717h-422z" />
    <glyph glyph-name="x" unicode="x" horiz-adv-x="1251" 
d="M66 1028h448l131 -315l137 315h394l-316 -491l348 -537h-454l-162 381l-170 -381h-397l346 537z" />
    <glyph glyph-name="y" unicode="y" horiz-adv-x="1251" 
d="M659 -389h-358l145 356l-430 1061h416l205 -715l223 715h359z" />
    <glyph glyph-name="z" unicode="z" horiz-adv-x="1138" 
d="M104 778v248h910v-254l-500 -528h524v-244h-956v260l493 518h-471z" />
    <glyph glyph-name="braceleft" unicode="{" horiz-adv-x="681" 
d="M197 1008v47q0 84 22.5 275t499.5 216v-184q-148 -11 -183.5 -81.5t-38.5 -121.5t-3 -96v-45q0 -174 -80 -262q-83 -92 -159.5 -99.5t-96.5 -9.5q61 -8 126.5 -23.5t109.5 -60.5q68 -68 84 -139t16 -148v-45q0 -45 3 -96t39.5 -125.5t182.5 -77.5v-184q-412 22 -467 174
t-55 318v47q0 104 -39.5 169.5t-194.5 94.5v192q146 21 190 98t44 167z" />
    <glyph glyph-name="bar" unicode="|" horiz-adv-x="569" 
d="M430 1536v-2048h-291v2048h291z" />
    <glyph glyph-name="braceright" unicode="}" horiz-adv-x="681" 
d="M719 551q-234 -34 -234 -264v-47q0 -84 -23 -275.5t-499 -216.5v184q148 11 183.5 81.5t38.5 120.5t3 97v45q0 175 80 263q59 64 117.5 82.5t138.5 25.5q-61 8 -126.5 23.5t-109.5 59.5q-68 67 -84 140t-16 148v45q0 45 -3 96t-38.5 123.5t-183.5 79.5v184
q411 -22 466.5 -173t55.5 -318v-47q0 -104 40 -171t194 -94v-192z" />
    <glyph glyph-name="asciitilde" unicode="~" horiz-adv-x="1351" 
d="M499.5 750q43.5 -10 163.5 -46q121 -36 177.5 -51.5t95.5 -15.5q65 0 87 32.5t34 84.5h188q-23 -272 -130 -342t-175 -70t-162 26t-160 48q-160 52 -210 53q-51 0 -79 -34t-36 -83h-187q12 185 79 267.5t122 111.5t102 29t90.5 -10z" />
    <glyph glyph-name="uni00A0" unicode="&#xa0;" horiz-adv-x="681" 
 />
    <glyph glyph-name="exclamdown" unicode="&#xa1;" horiz-adv-x="909" 
d="M266 797v307h369v-307h-369zM602 664l76 -1039h-445l74 1039h295z" />
    <glyph glyph-name="cent" unicode="&#xa2;" 
d="M692 793q-164 0 -164 -278.5t164 -278.5q117 0 129.5 65.5t16.5 95.5h399q-7 -202 -165 -319t-370 -109l-90 -288h-284l92 346q-164 76 -227.5 204.5t-63.5 286.5t78 336t467 205l78 260h284l-82 -299q187 -78 231 -186.5t44 -169.5h-400q8 87 -43 108t-94 21z" />
    <glyph glyph-name="sterling" unicode="&#xa3;" 
d="M70 240h151v450h-196v234h196q0 159 29 280.5t155 218.5t373 97t395 -98.5t148 -358.5h-379q0 91 -29.5 156t-134.5 65q-165 0 -169.5 -146.5t-4.5 -213.5h297v-234h-297v-450h647v-240h-1181v240z" />
    <glyph glyph-name="currency" unicode="&#xa4;" horiz-adv-x="1351" 
d="M473 714q0 -83 58.5 -141.5t144.5 -58.5t144.5 58.5t58.5 144.5t-59.5 143.5t-143.5 57.5t-143.5 -60.5t-59.5 -143.5zM662 258q-100 0 -211 59l-138 -137l-172 172l138 137q-18 35 -39 88.5t-21 136.5t21.5 138t38.5 90l-138 137l172 172l138 -137q117 60 214 60
t150 -22t88 -38l135 137l172 -172l-135 -137q14 -29 37 -86t23 -162t-60 -205l137 -137l-172 -172l-137 137q-35 -18 -88 -38.5t-153 -20.5z" />
    <glyph glyph-name="yen" unicode="&#xa5;" 
d="M481 0v246h-370v266h366l-61 111h-305v266h182l-275 528h412l246 -559l260 559h412l-285 -528h192v-266h-305l-61 -111h366v-266h-385v-246h-389z" />
    <glyph glyph-name="brokenbar" unicode="&#xa6;" horiz-adv-x="569" 
d="M430 358v-716h-291v716h291zM430 1382v-716h-291v716h291z" />
    <glyph glyph-name="section" unicode="&#xa7;" 
d="M836 741q0 70 -56.5 109t-144.5 80q-98 -85 -98 -156t62 -114.5t163 -81.5q74 93 74 163zM539 186q211 0 211 93q0 35 -34 57t-100 45l-198 70q-135 48 -184.5 109.5t-49.5 155.5q0 93 51.5 162.5t174.5 131.5q-177 66 -177 237q0 98 53.5 153.5t140 87.5t220.5 32
q135 0 246 -15.5t135 -17.5v-234q-133 45 -269 45t-136 -71q0 -35 30.5 -54.5t81.5 -37.5l232 -80q98 -35 154.5 -99.5t56.5 -179.5q0 -183 -193 -276q79 -41 123.5 -93t44.5 -134q0 -83 -29.5 -136t-117 -115.5t-333.5 -62.5t-423 45v232q148 -50 289 -50z" />
    <glyph glyph-name="dieresis" unicode="&#xa8;" horiz-adv-x="681" 
d="M-104 1487h350v-297h-350v297zM434 1487h350v-297h-350v297z" />
    <glyph glyph-name="copyright" unicode="&#xa9;" horiz-adv-x="1638" 
d="M637 727q0 -166 60.5 -221t119.5 -55q96 0 123 38.5t35 88.5h256q0 -227 -157.5 -263t-215.5 -36q-57 0 -100 4t-89 16t-91.5 35.5t-120 103t-74.5 288.5t113 341q70 78 154 104.5t186 26.5q215 0 317 -106q53 -59 62.5 -111.5t11.5 -79.5h-254q-14 123 -144 123
q-192 0 -192 -297zM754.5 1386q-199.5 0 -388 -188.5t-188.5 -453.5t137.5 -404t255 -189.5t250.5 -50.5t250 51.5t204 138.5t137 203.5t50 250t-50 250t-137 204.5t-204 138t-316.5 50zM822 1520q159 0 299.5 -60.5t247 -165t167.5 -247t61 -303.5t-60 -303t-165.5 -247.5
t-247 -167t-302.5 -61.5t-303 61.5t-247.5 167t-167 247t-61.5 303.5t62.5 304t169 246.5t247.5 165t300 60.5z" />
    <glyph glyph-name="ordfeminine" unicode="&#xaa;" horiz-adv-x="751" 
d="M721 1001q0 -29 14 -127h-272l-8 52h-4q-14 -20 -59.5 -45t-103.5 -25q-119 0 -195.5 50.5t-76.5 154.5t112 168.5t249 64.5h80q0 72 -60 72q-43 0 -64.5 -17.5t-19.5 -29.5h-239q0 102 116 154q83 36 217 36t196.5 -33.5t90 -69.5t27.5 -87v-318zM283 1073
q0 -35 21.5 -54.5t72.5 -19.5t64.5 40t13.5 112q-68 0 -111 -12q-61 -11 -61 -66z" />
    <glyph glyph-name="guillemotleft" unicode="&#xab;" 
d="M1237 920l-244 -402l244 -397h-315l-256 401l254 398h317zM688 920l-246 -402l246 -397h-315l-256 401l254 398h317z" />
    <glyph glyph-name="logicalnot" unicode="&#xac;" horiz-adv-x="1351" 
d="M125 938h1102v-774h-299v485h-803v289z" />
    <glyph glyph-name="uni00AD" unicode="&#xad;" horiz-adv-x="681" 
d="M627 662v-244h-582v244h582z" />
    <glyph glyph-name="registered" unicode="&#xae;" horiz-adv-x="819" 
d="M350 1161h45q29 0 54.5 6.5t25.5 46.5t-26.5 47t-53.5 7h-45v-107zM592 1233q0 -88 -105 -103v-2q61 -2 75 -27.5t20 -60.5t9 -55t5 -32.5t3 -19.5t5 -18h-129q-8 37 -13 87t-13.5 65.5t-49.5 15.5h-49v-168h-121v431h201q72 0 117 -19t45 -94zM182.5 1359.5
q-94.5 -92.5 -94.5 -226.5t94 -228t228 -94t227.5 94t93.5 227t-95.5 226.5t-227.5 93.5q-131 0 -225.5 -92.5zM682.5 1407.5q114.5 -112.5 114.5 -274.5t-114 -276t-274.5 -114t-274.5 114t-114 276t114.5 274.5t274 112.5t274 -112.5z" />
    <glyph glyph-name="macron" unicode="&#xaf;" horiz-adv-x="681" 
d="M-55 1413h782v-156h-782v156z" />
    <glyph glyph-name="degree" unicode="&#xb0;" horiz-adv-x="819" 
d="M406 997q62 0 104.5 35.5t42.5 99.5t-42 108t-104 44t-102.5 -44t-38.5 -108t40 -99.5t100 -35.5zM717 1140.5q0 -63.5 -24.5 -119.5t-66.5 -97t-97.5 -65.5t-119 -24.5t-120 24.5t-97 65.5t-65.5 97t-25 119.5t24 119t65.5 97.5t98 66.5t120 24.5t119 -24.5t97.5 -66.5
t66.5 -97.5t24.5 -119z" />
    <glyph glyph-name="plusminus" unicode="&#xb1;" horiz-adv-x="1351" 
d="M125 207h1102v-289h-1102v289zM530 580h-405v286h405v318h293v-318h404v-286h-404v-301h-293v301z" />
    <glyph glyph-name="uni00B2" unicode="&#xb2;" horiz-adv-x="839" 
d="M510 1206q0 74 -98 74q-45 0 -72 -27.5t-27 -56.5h-260q4 132 111 193t272 61q235 0 292.5 -83t57.5 -140t-31.5 -109.5t-95.5 -120.5t-173.5 -149t-135.5 -94v-2h438v-170h-753v159q57 47 139 108.5t155.5 125t127 124t53.5 107.5z" />
    <glyph glyph-name="uni00B3" unicode="&#xb3;" horiz-adv-x="839" 
d="M508 1210q0 70 -73 70t-103.5 -22.5t-30.5 -51.5h-270q5 182 158 213t215 31q150 0 265 -49t115 -168t-86 -158t-127 -45v-4q100 -10 166 -64.5t66 -139.5t-38 -132t-123 -87t-232 -40q-375 0 -402 264h268q0 -38 29 -66t88 -28t96 19.5t37 71.5t-25.5 75t-62.5 31t-80 7
t-79 -1v170h115q114 0 114 104z" />
    <glyph glyph-name="acute" unicode="&#xb4;" horiz-adv-x="681" 
d="M412 1190h-271l228 297h417z" />
    <glyph glyph-name="mu" unicode="&#xb5;" 
d="M467 -436h-274v1464h286v-506q0 -159 22.5 -210.5t57.5 -73t99 -21.5q117 0 151.5 77.5t34.5 217.5v516h284v-1028h-237v117q-39 -58 -88 -95.5t-135 -37.5q-131 0 -201 98v-518z" />
    <glyph glyph-name="paragraph" unicode="&#xb6;" horiz-adv-x="1740" 
d="M1384 1249v-1614h-278v1614h-182v-1614h-279v865q-167 12 -266 106q-133 126 -133 343t131.5 373.5t410.5 156.5h699v-230h-103z" />
    <glyph glyph-name="periodcentered" unicode="&#xb7;" horiz-adv-x="681" 
d="M147 723h361v-305h-361v305z" />
    <glyph glyph-name="cedilla" unicode="&#xb8;" horiz-adv-x="681" 
d="M377 -121q104 0 152.5 -47t48.5 -109t-63.5 -115.5t-204.5 -53.5t-242 40l26 93q90 -45 194 -45t105 79q0 41 -33.5 58.5t-71.5 17.5t-75 -18l-47 41l119 198h100l-78 -145q30 6 70 6z" />
    <glyph glyph-name="uni00B9" unicode="&#xb9;" horiz-adv-x="839" 
d="M338 582v608q-115 -72 -225 -107v199q152 45 266 137h225v-837h-266z" />
    <glyph glyph-name="ordmasculine" unicode="&#xba;" horiz-adv-x="819" 
d="M411 1509q268 0 328 -119.5t60 -243.5t-110.5 -207t-278.5 -83q-169 0 -278 82.5t-109 245.5t107.5 244t280.5 81zM532 1182.5q0 183.5 -93 183.5t-121.5 -52t-28.5 -131.5t28.5 -131.5t121.5 -52t93 183.5z" />
    <glyph glyph-name="guillemotright" unicode="&#xbb;" 
d="M666 121l243 401l-243 398h315l256 -402l-254 -397h-317zM117 121l243 401l-243 398h315l256 -402l-254 -397h-317z" />
    <glyph glyph-name="onequarter" unicode="&#xbc;" horiz-adv-x="1904" 
d="M1448 330v344l-231 -344h231zM1446 164h-426v211l334 465h350v-510h115v-166h-115v-166h-258v166zM395 0l748 1448h223l-748 -1448h-223zM309 582v608q-115 -72 -225 -107v199q152 45 266 137h225v-837h-266z" />
    <glyph glyph-name="onehalf" unicode="&#xbd;" horiz-adv-x="1904" 
d="M1540 625q0 73 -98 73q-45 0 -72 -27.5t-27 -56.5h-260q4 132 110 193t273 61q235 0 293 -83t58 -140t-32 -109.5t-93 -117.5t-172.5 -148.5t-139.5 -97.5v-2h439v-170h-754v160q47 37 261 192t214 273zM395 0l748 1448h223l-748 -1448h-223zM309 582v608
q-115 -72 -225 -107v199q152 45 266 137h225v-837h-266z" />
    <glyph glyph-name="threequarters" unicode="&#xbe;" horiz-adv-x="1904" 
d="M1497 330v344l-231 -344h231zM1495 164h-426v211l334 465h350v-510h115v-166h-115v-166h-258v166zM520 0l748 1448h223l-748 -1448h-223zM535 1210q0 70 -73 70t-103.5 -22.5t-30.5 -51.5h-271q4 125 117.5 184.5t259.5 59.5q241 0 309 -75t68 -129q0 -94 -63.5 -148.5
t-149.5 -67.5v-4q100 -10 165.5 -64.5t65.5 -139.5t-37.5 -132t-122.5 -87t-233 -40q-374 0 -401 264h268q0 -38 29 -66t88 -28t96 19.5t37 71.5t-25.5 75t-62.5 31t-80 7t-80 -1v170h115q115 0 115 104z" />
    <glyph glyph-name="questiondown" unicode="&#xbf;" horiz-adv-x="1138" 
d="M475 797v307h369v-307h-369zM704 -406q-270 0 -448 87t-178 309q0 172 160 293.5t187.5 144.5t49 58t21.5 128v101h327q-4 -76 1 -122t-4 -102.5t-109 -152.5l-101 -102q-102 -101 -102 -197t79 -137t193 -41t213 30v-266q-161 -31 -289 -31z" />
    <glyph glyph-name="Agrave" unicode="&#xc0;" horiz-adv-x="1705" 
d="M1024 569l-190 621h-7l-204 -621h401zM600 1479h500l583 -1479h-462l-103 297h-592l-100 -297h-410zM410 1937h426l219 -297h-264z" />
    <glyph glyph-name="Aacute" unicode="&#xc1;" horiz-adv-x="1705" 
d="M1024 569l-190 621h-7l-204 -621h401zM600 1479h500l583 -1479h-462l-103 297h-592l-100 -297h-410zM887 1640h-271l228 297h418z" />
    <glyph glyph-name="Acircumflex" unicode="&#xc2;" horiz-adv-x="1705" 
d="M1024 569l-190 621h-7l-204 -621h401zM600 1479h500l583 -1479h-462l-103 297h-592l-100 -297h-410zM1018 1937l246 -297h-267l-151 158l-152 -158h-266l244 297h346z" />
    <glyph glyph-name="Atilde" unicode="&#xc3;" horiz-adv-x="1705" 
d="M1024 569l-190 621h-7l-204 -621h401zM600 1479h500l583 -1479h-462l-103 297h-592l-100 -297h-410zM1110 1933h166q-12 -121 -91 -208q-83 -87 -196 -87q-32 0 -102 19l-168 49q-57 16 -87 16q-70 0 -92 -62q-5 -13 -8 -20h-159q6 121 91 211t208 88q53 0 149 -28
l158 -45q38 -11 69 -12t47 25q15 26 15 54z" />
    <glyph glyph-name="Adieresis" unicode="&#xc4;" horiz-adv-x="1705" 
d="M1024 569l-190 621h-7l-204 -621h401zM600 1479h500l583 -1479h-462l-103 297h-592l-100 -297h-410zM408 1937h350v-297h-350v297zM946 1937h350v-297h-350v297z" />
    <glyph glyph-name="Aring" unicode="&#xc5;" horiz-adv-x="1705" 
d="M1024 569l-190 621h-7l-204 -621h401zM600 1479h500l583 -1479h-462l-103 297h-592l-100 -297h-410zM963 1789q0 46 -32 78q-32 31 -78 31t-77 -32t-31 -77q0 -46 31 -78t77 -32t78 32t32 78zM1016 1626q-67 -67 -162 -67t-162 67t-67 162q0 96 65 163q65 68 163 68
q97 0 164 -69q66 -69 66 -163t-67 -161z" />
    <glyph glyph-name="AE" unicode="&#xc6;" horiz-adv-x="2048" 
d="M637 580h332l-68 643h-10zM1950 1479v-287h-652l33 -305h559v-287h-528l31 -313h557v-287h-922l-33 293h-463l-112 -293h-406l650 1479h1286z" />
    <glyph glyph-name="Ccedilla" unicode="&#xc7;" horiz-adv-x="1593" 
d="M783 -203q-38 0 -74 -18l-47 41l92 155q-475 38 -569.5 304.5t-94.5 434.5q0 366 186 578q115 129 257.5 173t313.5 44q357 0 529 -180q123 -128 123 -315h-422q-14 113 -82.5 159t-158.5 46q-170 0 -246 -135t-76 -363q0 -342 120 -402.5t201 -60.5t128 25.5t72.5 60.5
t33.5 71t12 58h426q0 -277 -193.5 -387t-457.5 -115l-53 -98q30 6 69 6q106 0 153.5 -47t47.5 -90q0 -82 -63 -135t-204 -53t-243 40l27 93q90 -45 194 -45t105 79q0 41 -34 58.5t-72 17.5z" />
    <glyph glyph-name="Egrave" unicode="&#xc8;" 
d="M141 1475h1110v-283h-704v-307h663v-283h-663v-315h721v-287h-1127v1475zM240 1937h426l219 -297h-264z" />
    <glyph glyph-name="Eacute" unicode="&#xc9;" 
d="M141 1475h1110v-283h-704v-307h663v-283h-663v-315h721v-287h-1127v1475zM754 1640h-271l228 297h417z" />
    <glyph glyph-name="Ecircumflex" unicode="&#xca;" 
d="M141 1475h1110v-283h-704v-307h663v-283h-663v-315h721v-287h-1127v1475zM848 1937l246 -297h-267l-151 158l-152 -158h-266l244 297h346z" />
    <glyph glyph-name="Edieresis" unicode="&#xcb;" 
d="M141 1475h1110v-283h-704v-307h663v-283h-663v-315h721v-287h-1127v1475zM238 1937h350v-297h-350v297zM776 1937h350v-297h-350v297z" />
    <glyph glyph-name="Igrave" unicode="&#xcc;" horiz-adv-x="696" 
d="M123 1479h422v-1479h-422v1479zM-102 1937h426l219 -297h-264z" />
    <glyph glyph-name="Iacute" unicode="&#xcd;" horiz-adv-x="696" 
d="M123 1479h422v-1479h-422v1479zM389 1640h-270l227 297h418z" />
    <glyph glyph-name="Icircumflex" unicode="&#xce;" horiz-adv-x="696" 
d="M123 1479h422v-1479h-422v1479zM506 1937l246 -297h-267l-151 158l-152 -158h-266l244 297h346z" />
    <glyph glyph-name="Idieresis" unicode="&#xcf;" horiz-adv-x="696" 
d="M123 1479h422v-1479h-422v1479zM-104 1937h350v-297h-350v297zM434 1937h350v-297h-350v297z" />
    <glyph glyph-name="Eth" unicode="&#xd0;" horiz-adv-x="1705" 
d="M547 287h192q181 0 308 118.5t127 334t-127 334t-308 118.5h-192v-299h321v-176h-321v-430zM137 717h-127v176h127v586h625q404 0 623 -174t219 -658t-326 -565.5t-516 -81.5h-625v717z" />
    <glyph glyph-name="Ntilde" unicode="&#xd1;" horiz-adv-x="1693" 
d="M137 1479h565l500 -1102l-4 1102h358v-1479h-552l-510 1149l4 -1149h-361v1479zM655 1722q-75 0 -98 -82h-160q6 121 91 211t208 88q54 0 150 -28l158 -45q131 -39 131 67h165q-13 -123 -93 -209q-81 -86 -193 -86q-30 0 -103 19l-168 49q-57 16 -88 16z" />
    <glyph glyph-name="Ograve" unicode="&#xd2;" horiz-adv-x="1705" 
d="M504 738q0 -329 173 -432q67 -40 173 -40q194 0 276 161q62 119 62 320t-61 312q-17 33 -33 57q-79 107 -255 107t-265 -150q-70 -119 -70 -335zM1612 735q0 -221 -71 -369q-136 -284 -431 -364q-137 -37 -276 -37q-138 0 -276 43q-289 90 -413 373q-63 145 -63 316
t26 274q54 217 175 340q196 199 579 209q400 0 596 -257q154 -204 154 -528zM410 1937h426l219 -297h-264z" />
    <glyph glyph-name="Oacute" unicode="&#xd3;" horiz-adv-x="1705" 
d="M504 738q0 -329 173 -432q67 -40 173 -40q194 0 276 161q62 119 62 320t-61 312q-17 33 -33 57q-79 107 -255 107t-265 -150q-70 -119 -70 -335zM1612 735q0 -221 -71 -369q-136 -284 -431 -364q-137 -37 -276 -37q-138 0 -276 43q-289 90 -413 373q-63 145 -63 316
t26 274q54 217 175 340q196 199 579 209q400 0 596 -257q154 -204 154 -528zM924 1640h-271l228 297h417z" />
    <glyph glyph-name="Ocircumflex" unicode="&#xd4;" horiz-adv-x="1705" 
d="M504 738q0 -329 173 -432q67 -40 173 -40q194 0 276 161q62 119 62 320t-61 312q-17 33 -33 57q-79 107 -255 107t-265 -150q-70 -119 -70 -335zM1612 735q0 -221 -71 -369q-136 -284 -431 -364q-137 -37 -276 -37q-138 0 -276 43q-289 90 -413 373q-63 145 -63 316
t26 274q54 217 175 340q196 199 579 209q400 0 596 -257q154 -204 154 -528zM1018 1937l246 -297h-267l-151 158l-152 -158h-266l244 297h346z" />
    <glyph glyph-name="Otilde" unicode="&#xd5;" horiz-adv-x="1705" 
d="M504 738q0 -329 173 -432q67 -40 173 -40q194 0 276 161q62 119 62 320t-61 312q-17 33 -33 57q-79 107 -255 107t-265 -150q-70 -119 -70 -335zM1612 735q0 -221 -71 -369q-136 -284 -431 -364q-137 -37 -276 -37q-138 0 -276 43q-289 90 -413 373q-63 145 -63 316
t26 274q54 217 175 340q196 199 579 209q400 0 596 -257q154 -204 154 -528zM1110 1933h166q-12 -121 -91 -208q-83 -87 -196 -87q-32 0 -102 19l-168 49q-57 16 -87 16q-70 0 -92 -62q-5 -13 -8 -20h-159q6 121 91 211t208 88q53 0 149 -28l158 -45q38 -11 69 -12t47 25
q15 26 15 54z" />
    <glyph glyph-name="Odieresis" unicode="&#xd6;" horiz-adv-x="1705" 
d="M504 738q0 -329 173 -432q67 -40 173 -40q194 0 276 161q62 119 62 320t-61 312q-17 33 -33 57q-79 107 -255 107t-265 -150q-70 -119 -70 -335zM1612 735q0 -221 -71 -369q-136 -284 -431 -364q-137 -37 -276 -37q-138 0 -276 43q-289 90 -413 373q-63 145 -63 316
t26 274q54 217 175 340q196 199 579 209q400 0 596 -257q154 -204 154 -528zM408 1937h350v-297h-350v297zM946 1937h350v-297h-350v297z" />
    <glyph glyph-name="multiply" unicode="&#xd7;" horiz-adv-x="1351" 
d="M475 551l-336 336l201 200l336 -335l336 335l200 -200l-333 -336l333 -336l-200 -201l-336 334l-336 -334l-201 201z" />
    <glyph glyph-name="Oslash" unicode="&#xd8;" horiz-adv-x="1705" 
d="M854 1223q-336 0 -336 -490q0 -127 25 -215l565 574q-82 131 -254 131zM1190 733q0 96 -12 152l-541 -547q78 -82 199 -82q122 0 238 77.5t116 399.5zM1620 739q0 -366 -200.5 -568t-565.5 -202q-281 0 -463 119l-201 -203l-135 142l191 192q-158 195 -158 540t200 547.5
t566 202.5q324 0 514 -155l197 200l133 -145l-199 -201q121 -188 121 -469z" />
    <glyph glyph-name="Ugrave" unicode="&#xd9;" horiz-adv-x="1654" 
d="M860 256q295 0 295 358v865h399v-856q0 -314 -114 -451q-169 -211 -592 -211q-322 0 -494 121q-190 134 -206 421q-3 73 -3 134l2 842h414v-879q0 -152 44 -218q84 -126 255 -126zM387 1937h426l219 -297h-264z" />
    <glyph glyph-name="Uacute" unicode="&#xda;" horiz-adv-x="1654" 
d="M860 256q295 0 295 358v865h399v-856q0 -314 -114 -451q-169 -211 -592 -211q-322 0 -494 121q-190 134 -206 421q-3 73 -3 134l2 842h414v-879q0 -152 44 -218q84 -126 255 -126zM901 1640h-270l227 297h418z" />
    <glyph glyph-name="Ucircumflex" unicode="&#xdb;" horiz-adv-x="1654" 
d="M860 256q295 0 295 358v865h399v-856q0 -314 -114 -451q-169 -211 -592 -211q-322 0 -494 121q-190 134 -206 421q-3 73 -3 134l2 842h414v-879q0 -152 44 -218q84 -126 255 -126zM995 1937l246 -297h-266l-152 158l-151 -158h-266l243 297h346z" />
    <glyph glyph-name="Udieresis" unicode="&#xdc;" horiz-adv-x="1654" 
d="M860 256q295 0 295 358v865h399v-856q0 -314 -114 -451q-169 -211 -592 -211q-322 0 -494 121q-190 134 -206 421q-3 73 -3 134l2 842h414v-879q0 -152 44 -218q84 -126 255 -126zM385 1937h350v-297h-350v297zM924 1937h350v-297h-350v297z" />
    <glyph glyph-name="Yacute" unicode="&#xdd;" horiz-adv-x="1593" 
d="M989 0h-414v541l-563 938h475l324 -621l334 621h422l-578 -957v-522zM909 1640h-270l227 297h418z" />
    <glyph glyph-name="Thorn" unicode="&#xde;" horiz-adv-x="1478" 
d="M559 606h211q123 0 176 53.5t53 135.5t-53 135t-176 53h-211v-377zM150 1479h409v-209h270q293 0 447 -110t154 -425.5t-232.5 -365.5t-368.5 -50h-270v-319h-409v1479z" />
    <glyph glyph-name="germandbls" unicode="&#xdf;" horiz-adv-x="1593" 
d="M739 1300q-229 0 -229 -264v-1036h-377v1053q0 366 247 412t321 46t122.5 -2t154.5 -18t211 -91.5t105 -230.5q0 -115 -50 -150t-92 -61t-67.5 -48.5t-25.5 -55.5t4 -49.5t34 -44.5t123 -78q93 -49 138 -76.5t97 -82t52 -183.5q0 -248 -174 -307.5t-253 -59.5
q-309 0 -412 114q-59 64 -68.5 120.5t-11.5 95.5h340q0 -55 30 -90q33 -33 75 -33q70 0 91 48.5t21 90.5q0 75 -39.5 111.5t-132.5 84.5q-92 48 -141.5 74.5t-83 57.5t-51 68t-17.5 90t29 104.5t95 90.5t92 63.5t26 84.5t-42 106t-141 46z" />
    <glyph glyph-name="agrave" unicode="&#xe0;" horiz-adv-x="1251" 
d="M444 333q0 -56 36 -97t106 -41q31 0 77 18t78 88t25 184q-159 0 -213 -17q-53 -17 -81 -48t-28 -87zM1126 197q0 -64 21 -197h-369q-12 58 -12 147q-50 -75 -99 -105q-101 -62 -217 -62q-290 0 -363 193q-21 58 -21 144t47 159t138 117q169 81 517 71q0 104 -16 141
q-30 70 -113 72q-53 0 -96 -34t-41 -122h-369q0 91 35 153q56 109 217 157q113 34 268 34t288 -56q128 -57 165 -180q20 -70 20 -153v-479zM219 1487h426l219 -297h-264z" />
    <glyph glyph-name="aacute" unicode="&#xe1;" horiz-adv-x="1251" 
d="M444 333q0 -56 36 -97t106 -41q31 0 77 18t78 88t25 184q-159 0 -213 -17q-53 -17 -81 -48t-28 -87zM1126 197q0 -64 21 -197h-369q-12 58 -12 147q-50 -75 -99 -105q-101 -62 -217 -62q-290 0 -363 193q-21 58 -21 144t47 159t138 117q169 81 517 71q0 104 -16 141
q-30 70 -113 72q-53 0 -96 -34t-41 -122h-369q0 91 35 153q56 109 217 157q113 34 268 34t288 -56q128 -57 165 -180q20 -70 20 -153v-479zM647 1190h-270l227 297h418z" />
    <glyph glyph-name="acircumflex" unicode="&#xe2;" horiz-adv-x="1251" 
d="M444 333q0 -56 36 -97t106 -41q31 0 77 18t78 88t25 184q-159 0 -213 -17q-53 -17 -81 -48t-28 -87zM1126 197q0 -64 21 -197h-369q-12 58 -12 147q-50 -75 -99 -105q-101 -62 -217 -62q-290 0 -363 193q-21 58 -21 144t47 159t138 117q169 81 517 71q0 104 -16 141
q-30 70 -113 72q-53 0 -96 -34t-41 -122h-369q0 91 35 153q56 109 217 157q113 34 268 34t288 -56q128 -57 165 -180q20 -70 20 -153v-479zM791 1487l245 -297h-266l-152 158l-151 -158h-266l243 297h347z" />
    <glyph glyph-name="atilde" unicode="&#xe3;" horiz-adv-x="1251" 
d="M444 333q0 -56 36 -97t106 -41q31 0 77 18t78 88t25 184q-159 0 -213 -17q-53 -17 -81 -48t-28 -87zM1126 197q0 -64 21 -197h-369q-12 58 -12 147q-50 -75 -99 -105q-101 -62 -217 -62q-290 0 -363 193q-21 58 -21 144t47 159t138 117q169 81 517 71q0 104 -16 141
q-30 70 -113 72q-53 0 -96 -34t-41 -122h-369q0 91 35 153q56 109 217 157q113 34 268 34t288 -56q128 -57 165 -180q20 -70 20 -153v-479zM221 1190q6 121 90 210t205 89q62 0 154 -29l157 -45q40 -12 63 -12q51 0 65 58q3 13 3 22h166q-13 -126 -94 -211q-81 -86 -192 -84
q-37 0 -103 18l-168 49q-61 17 -99 17t-66 -35q-11 -13 -15 -27t-6 -20h-160z" />
    <glyph glyph-name="adieresis" unicode="&#xe4;" horiz-adv-x="1251" 
d="M444 333q0 -56 36 -97t106 -41q31 0 77 18t78 88t25 184q-159 0 -213 -17q-53 -17 -81 -48t-28 -87zM1126 197q0 -64 21 -197h-369q-12 58 -12 147q-50 -75 -99 -105q-101 -62 -217 -62q-290 0 -363 193q-21 58 -21 144t47 159t138 117q169 81 517 71q0 104 -16 141
q-30 70 -113 72q-53 0 -96 -34t-41 -122h-369q0 91 35 153q56 109 217 157q113 34 268 34t288 -56q128 -57 165 -180q20 -70 20 -153v-479zM180 1487h350v-297h-350v297zM719 1487h350v-297h-350v297z" />
    <glyph glyph-name="aring" unicode="&#xe5;" horiz-adv-x="1251" 
d="M444 333q0 -56 36 -97t106 -41q31 0 77 18t78 88t25 184q-159 0 -213 -17q-53 -17 -81 -48t-28 -87zM1126 197q0 -64 21 -197h-369q-12 58 -12 147q-50 -75 -99 -105q-101 -62 -217 -62q-290 0 -363 193q-21 58 -21 144t47 159t138 117q169 81 517 71q0 104 -16 141
q-30 70 -113 72q-53 0 -96 -34t-41 -122h-369q0 91 35 153q56 109 217 157q113 34 268 34t288 -56q128 -57 165 -180q20 -70 20 -153v-479zM518 1338q0 -46 31 -78t77 -31q46 -1 78 31t31 78q0 46 -32 78q-31 32 -77 32t-77 -32t-31 -78zM788 1176q-68 -68 -163 -68t-160 67
q-66 67 -67 162t64 162q65 68 164 69q98 1 164 -69t66 -164q0 -95 -68 -159z" />
    <glyph glyph-name="ae" unicode="&#xe6;" horiz-adv-x="1933" 
d="M457 -31q-182 0 -298 84.5t-114 256.5t175 263t382 91h156q0 33 5 127.5t-132 89.5q-63 -4 -97 -50.5t-34 -89.5h-367q-2 94 87.5 206t445.5 112q130 0 210 -51.5t113 -89.5q116 141 309 141q437 0 494 -239.5t57 -383.5h-737q0 -116 28.5 -159.5t63.5 -62.5t90 -19
q166 0 187 141h368q-6 -100 -109 -233.5t-419 -133.5q-131 0 -205 36t-119 78t-75 107q-114 -221 -465 -221zM1481 645q0 88 -49 157t-134 62q-132 -5 -153 -90.5t-25 -128.5h361zM442 329q0 -54 39 -94t98 -40q109 0 144 81t35 213q-61 0 -116.5 -0.5t-97.5 -22.5
t-72 -52.5t-30 -84.5z" />
    <glyph glyph-name="ccedilla" unicode="&#xe7;" horiz-adv-x="1251" 
d="M611 -203q-36 0 -76 -18l-48 41l95 160q-349 32 -422.5 222t-73.5 330t91.5 335.5t481.5 195.5q283 0 416 -148q60 -63 77.5 -121t23.5 -126h-381q0 72 -31.5 124t-95.5 52t-97.5 -25.5t-60.5 -85t-27 -186.5q0 -210 44 -282t126 -72q123 0 131.5 90t8.5 118h389
q0 -174 -122 -293.5t-376 -132.5l-55 -102q30 6 69 6q106 0 154.5 -47t48.5 -109t-63 -115.5t-205 -53.5t-242 40l25 93q90 -45 194 -45t105 79q0 41 -34 58.5t-70 17.5z" />
    <glyph glyph-name="egrave" unicode="&#xe8;" horiz-adv-x="1251" 
d="M807 645q-7 86 -28 125q-49 92 -156 91q-108 -1 -155 -90q-23 -43 -32 -126h371zM432 436q0 -91 22 -139q50 -111 175 -111q78 0 123 39t53 111h358q-19 -183 -179 -277q-135 -80 -381 -81q-247 0 -387 132t-140 388q0 410 302 527q103 40 227 40q124 -1 205 -21
q213 -54 302 -241q35 -66 46 -149t11 -218h-737zM219 1487h426l219 -297h-264z" />
    <glyph glyph-name="eacute" unicode="&#xe9;" horiz-adv-x="1251" 
d="M807 645q-7 86 -28 125q-49 92 -156 91q-108 -1 -155 -90q-23 -43 -32 -126h371zM432 436q0 -91 22 -139q50 -111 175 -111q78 0 123 39t53 111h358q-19 -183 -179 -277q-135 -80 -381 -81q-247 0 -387 132t-140 388q0 410 302 527q103 40 227 40q124 -1 205 -21
q213 -54 302 -241q35 -66 46 -149t11 -218h-737zM647 1190h-270l227 297h418z" />
    <glyph glyph-name="ecircumflex" unicode="&#xea;" horiz-adv-x="1251" 
d="M807 645q-7 86 -28 125q-49 92 -156 91q-108 -1 -155 -90q-23 -43 -32 -126h371zM432 436q0 -91 22 -139q50 -111 175 -111q78 0 123 39t53 111h358q-19 -183 -179 -277q-135 -80 -381 -81q-247 0 -387 132t-140 388q0 410 302 527q103 40 227 40q124 -1 205 -21
q213 -54 302 -241q35 -66 46 -149t11 -218h-737zM791 1487l245 -297h-266l-152 158l-151 -158h-266l243 297h347z" />
    <glyph glyph-name="edieresis" unicode="&#xeb;" horiz-adv-x="1251" 
d="M807 645q-7 86 -28 125q-49 92 -156 91q-108 -1 -155 -90q-23 -43 -32 -126h371zM432 436q0 -91 22 -139q50 -111 175 -111q78 0 123 39t53 111h358q-19 -183 -179 -277q-135 -80 -381 -81q-247 0 -387 132t-140 388q0 410 302 527q103 40 227 40q124 -1 205 -21
q213 -54 302 -241q35 -66 46 -149t11 -218h-737zM180 1487h350v-297h-350v297zM719 1487h350v-297h-350v297z" />
    <glyph glyph-name="igrave" unicode="&#xec;" horiz-adv-x="675" 
d="M147 0v1028h390v-1028h-390zM-102 1487h426l219 -297h-264z" />
    <glyph glyph-name="iacute" unicode="&#xed;" horiz-adv-x="675" 
d="M147 0v1028h390v-1028h-390zM412 1190h-271l228 297h417z" />
    <glyph glyph-name="icircumflex" unicode="&#xee;" horiz-adv-x="675" 
d="M147 0v1028h390v-1028h-390zM506 1487l246 -297h-267l-151 158l-152 -158h-266l244 297h346z" />
    <glyph glyph-name="idieresis" unicode="&#xef;" horiz-adv-x="675" 
d="M147 0v1028h390v-1028h-390zM-104 1487h350v-297h-350v297zM434 1487h350v-297h-350v297z" />
    <glyph glyph-name="eth" unicode="&#xf0;" 
d="M485 475q0 -51 8.5 -103.5t30 -95.5t60.5 -70.5t100 -27.5t100 27.5t60.5 70.5t30 95.5t8.5 103.5t-8.5 104.5t-30 96.5t-60.5 70.5t-100 27.5t-100 -27.5t-60.5 -70.5t-30 -96.5t-8.5 -104.5zM1282 544q0 -146 -48 -259t-130 -183.5t-190.5 -101.5t-298 -31
t-359.5 127.5t-170 376.5t147 379.5t361 130.5q92 0 142 -13.5t100 -41.5v8q-96 117 -180.5 163t-139.5 72l-131 -112l-119 57l117 98q-88 29 -168 48l152 266q185 -41 292 -84l111 92l94 -74l-80 -65q394 -207 446 -457t52 -396z" />
    <glyph glyph-name="ntilde" unicode="&#xf1;" 
d="M686 807q-172 0 -172 -217v-590h-383v809l-10 219h385l4 -158q49 80 100 113q101 66 242 67t218 -46q139 -85 153 -254q6 -74 6 -127v-623h-385v590q0 94 -18 132q-40 85 -140 85zM266 1190q6 121 90 210t205 89q62 0 154 -29l157 -45q40 -12 63 -12q60 0 69 80h165
q-13 -126 -94 -211q-81 -86 -192 -84q-37 0 -103 18l-168 49q-61 17 -99 17t-66 -35q-11 -13 -15 -27t-6 -20h-160z" />
    <glyph glyph-name="ograve" unicode="&#xf2;" 
d="M680 844q-203 0 -203 -328q0 -159 44 -237t123 -86q19 -2 32 -3q195 0 201 326q0 148 -32 211t-70 90t-95 27zM700 -25q-315 0 -478 156q-144 137 -144 384t154 397t432 151q279 0 445 -135q165 -135 165 -396q0 -260 -150 -409q-66 -63 -165 -105t-259 -43zM240 1487
h426l219 -297h-264z" />
    <glyph glyph-name="oacute" unicode="&#xf3;" 
d="M680 844q-203 0 -203 -328q0 -159 44 -237t123 -86q19 -2 32 -3q195 0 201 326q0 148 -32 211t-70 90t-95 27zM700 -25q-315 0 -478 156q-144 137 -144 384t154 397t432 151q279 0 445 -135q165 -135 165 -396q0 -260 -150 -409q-66 -63 -165 -105t-259 -43zM754 1190
h-271l228 297h417z" />
    <glyph glyph-name="ocircumflex" unicode="&#xf4;" 
d="M680 844q-203 0 -203 -328q0 -159 44 -237t123 -86q19 -2 32 -3q195 0 201 326q0 148 -32 211t-70 90t-95 27zM700 -25q-315 0 -478 156q-144 137 -144 384t154 397t432 151q279 0 445 -135q165 -135 165 -396q0 -260 -150 -409q-66 -63 -165 -105t-259 -43zM872 1487
l246 -297h-266l-152 158l-151 -158h-266l243 297h346z" />
    <glyph glyph-name="otilde" unicode="&#xf5;" 
d="M680 844q-203 0 -203 -328q0 -159 44 -237t123 -86q19 -2 32 -3q195 0 201 326q0 148 -32 211t-70 90t-95 27zM700 -25q-315 0 -478 156q-144 137 -144 384t154 397t432 151q279 0 445 -135q165 -135 165 -396q0 -260 -150 -409q-66 -63 -165 -105t-259 -43zM266 1190
q6 121 90 210t205 89q62 0 154 -29l157 -45q40 -12 63 -12q60 0 69 80h165q-13 -126 -94 -211q-81 -86 -192 -84q-37 0 -103 18l-168 49q-61 17 -99 17t-66 -35q-11 -13 -15 -27t-6 -20h-160z" />
    <glyph glyph-name="odieresis" unicode="&#xf6;" 
d="M680 844q-203 0 -203 -328q0 -159 44 -237t123 -86q19 -2 32 -3q195 0 201 326q0 148 -32 211t-70 90t-95 27zM700 -25q-315 0 -478 156q-144 137 -144 384t154 397t432 151q279 0 445 -135q165 -135 165 -396q0 -260 -150 -409q-66 -63 -165 -105t-259 -43zM238 1487
h350v-297h-350v297zM776 1487h350v-297h-350v297z" />
    <glyph glyph-name="divide" unicode="&#xf7;" horiz-adv-x="1351" 
d="M514 1098h324v-310h-324v310zM514 313h324v-309h-324v309zM125 694h1102v-286h-1102v286z" />
    <glyph glyph-name="oslash" unicode="&#xf8;" 
d="M279 92q-193 145 -193 418q0 274 169.5 411.5t428.5 137.5q193 0 330 -74l127 154l98 -76l-121 -148q164 -143 164 -407t-169.5 -401.5t-428.5 -137.5q-175 0 -299 62l-147 -178l-97 73zM674 195q208 0 209 319q0 57 -9 109l-311 -377q41 -51 111 -51zM684 834
q-199 0 -199 -320q0 -91 17 -149l325 393q-50 76 -143 76z" />
    <glyph glyph-name="ugrave" unicode="&#xf9;" 
d="M510 -18q-235 0 -323 159q-56 103 -56 308v579h383v-600q0 -81 16 -117q37 -84 140 -84t140 81q19 43 19 124v596h385v-850q5 -82 5 -92l2 -86h-379l-8 160q-102 -160 -250 -174q-41 -4 -74 -4zM240 1487h426l219 -297h-264z" />
    <glyph glyph-name="uacute" unicode="&#xfa;" 
d="M510 -18q-235 0 -323 159q-56 103 -56 308v579h383v-600q0 -81 16 -117q37 -84 140 -84t140 81q19 43 19 124v596h385v-850q5 -82 5 -92l2 -86h-379l-8 160q-102 -160 -250 -174q-41 -4 -74 -4zM754 1190h-271l228 297h417z" />
    <glyph glyph-name="ucircumflex" unicode="&#xfb;" 
d="M510 -18q-235 0 -323 159q-56 103 -56 308v579h383v-600q0 -81 16 -117q37 -84 140 -84t140 81q19 43 19 124v596h385v-850q5 -82 5 -92l2 -86h-379l-8 160q-102 -160 -250 -174q-41 -4 -74 -4zM848 1487l246 -297h-267l-151 158l-152 -158h-266l244 297h346z" />
    <glyph glyph-name="udieresis" unicode="&#xfc;" 
d="M510 -18q-235 0 -323 159q-56 103 -56 308v579h383v-600q0 -81 16 -117q37 -84 140 -84t140 81q19 43 19 124v596h385v-850q5 -82 5 -92l2 -86h-379l-8 160q-102 -160 -250 -174q-41 -4 -74 -4zM238 1487h350v-297h-350v297zM776 1487h350v-297h-350v297z" />
    <glyph glyph-name="yacute" unicode="&#xfd;" horiz-adv-x="1251" 
d="M659 -389h-358l145 356l-430 1061h416l205 -715l223 715h359zM733 1190h-270l227 297h418z" />
    <glyph glyph-name="thorn" unicode="&#xfe;" 
d="M692.5 834q-61.5 0 -98.5 -32t-57.5 -79t-26.5 -103.5t-6 -105.5t6 -105.5t26.5 -103.5t57.5 -78.5t98.5 -31.5t98 31.5t57 78.5t27 103.5t6.5 105.5t-6.5 105.5t-27 103.5t-57 79t-98 32zM115 1479h389v-596h4q59 92 139 134t245 42t276.5 -154.5t111.5 -385.5
q0 -232 -123 -391t-358 -159q-86 0 -162 43t-129 111h-4v-516h-389v1872z" />
    <glyph glyph-name="ydieresis" unicode="&#xff;" horiz-adv-x="1251" 
d="M659 -389h-358l145 356l-430 1061h416l205 -715l223 715h359zM180 1487h350v-297h-350v297zM719 1487h350v-297h-350v297z" />
    <glyph glyph-name="dotlessi" unicode="&#x131;" horiz-adv-x="681" 
d="M147 0v1028h390v-1028h-390z" />
    <glyph glyph-name="OE" unicode="&#x152;" horiz-adv-x="2048" 
d="M850 1223q-187 0 -274 -130.5t-87 -351.5q0 -316 130.5 -397.5t230.5 -81.5q32 0 119 12v936q-94 13 -119 13zM1378 887h508v-287h-508v-313h570v-287h-1127q-345 0 -553.5 202.5t-208.5 547.5q0 218 107.5 406t257 248t247 67.5t206.5 7.5h1052v-287h-551v-305z" />
    <glyph glyph-name="oe" unicode="&#x153;" horiz-adv-x="2048" 
d="M78 514q0 270 169.5 407.5t431.5 137.5t419 -168q122 168 332 168q436 0 493 -239.5t57 -383.5h-737q0 -116 28.5 -159.5t63.5 -62.5t90 -19q166 0 187 141h368q-6 -100 -109 -233.5t-419 -133.5q-135 0 -234.5 50.5t-148.5 134.5q-159 -185 -406 -185t-416 137.5
t-169 407.5zM1612 645q0 88 -49 157t-133 62q-133 -5 -154 -90.5t-25 -128.5h361zM477 514q0 -55 8.5 -111.5t30 -102.5t60 -75.5t100 -29.5t100.5 29.5t60.5 75.5t29.5 102.5t8 111.5t-8 111.5t-29.5 102.5t-60.5 76t-100.5 30t-100 -30t-60 -76t-30 -102.5t-8.5 -111.5z
" />
    <glyph glyph-name="Scaron" unicode="&#x160;" horiz-adv-x="1478" 
d="M922 1044q0 208 -195 205q-90 0 -142 -45q-53 -45 -53 -98t21 -89q27 -47 129 -75l276 -72q198 -48 289 -114q142 -105 142 -312q0 -236 -181 -356q-181 -121 -473 -121q-155 1 -251 25q-195 50 -285 151q-113 124 -113 328h412q0 -84 28 -129q64 -102 222 -100
q127 0 189 70q30 34 30 92t-27 94q-27 35 -100 55l-363 94q-141 36 -211 89q-155 118 -155 304q0 325 339 437q118 39 273 39q395 0 527 -178q71 -93 82 -204q5 -50 5 -90h-415zM895 1937h260l-246 -297h-342l-243 297h258l157 -161z" />
    <glyph glyph-name="scaron" unicode="&#x161;" horiz-adv-x="1138" 
d="M440 334q0 -153 129 -156q65 0 91 35t26 79t-40 66t-105 39l-209 60q-94 23 -142 59q-108 81 -108 219q0 148 123 234t344 87q220 1 332 -65q146 -86 157 -280h-364q0 69 -14 97q-28 58 -107 58q-45 0 -80 -22t-35 -67q0 -46 29 -66t76 -33l274 -76q100 -27 148 -68
q47 -41 71 -90t23 -130q0 -81 -31 -141q-104 -202 -463 -202q-215 0 -333 58q-175 86 -173 305h381zM725 1487h260l-246 -297h-342l-243 297h258l157 -162z" />
    <glyph glyph-name="Ydieresis" unicode="&#x178;" horiz-adv-x="1593" 
d="M989 0h-414v541l-563 938h475l324 -621l334 621h422l-578 -957v-522zM352 1937h350v-297h-350v297zM891 1937h350v-297h-350v297z" />
    <glyph glyph-name="Zcaron" unicode="&#x17d;" 
d="M76 1190v285h1204v-316l-762 -872h778v-287h-1261v326l737 864h-696zM848 1937h260l-246 -297h-342l-244 297h259l157 -161z" />
    <glyph glyph-name="zcaron" unicode="&#x17e;" horiz-adv-x="1138" 
d="M104 778v248h910v-254l-500 -528h524v-244h-956v260l493 518h-471zM725 1487h260l-246 -297h-342l-243 297h258l157 -162z" />
    <glyph glyph-name="florin" unicode="&#x192;" 
d="M527.5 -367q-146.5 -39 -258.5 -39t-203 17l49 250q33 -2 102 -2t88 108l133 654h-198l51 266h192q16 72 29.5 141.5t41.5 170t123 175t302 74.5q113 0 197 -14l-48 -258q-84 14 -125.5 -6.5t-61 -63.5t-28 -101.5t-22.5 -117.5h196l-49 -266h-192l-121 -637
q-51 -312 -197.5 -351z" />
    <glyph glyph-name="circumflex" unicode="&#x2c6;" horiz-adv-x="681" 
d="M506 1487l246 -297h-267l-151 158l-152 -158h-266l244 297h346z" />
    <glyph glyph-name="caron" unicode="&#x2c7;" horiz-adv-x="681" 
d="M496 1487h260l-246 -297h-342l-244 297h258l158 -162z" />
    <glyph glyph-name="ring" unicode="&#x2da;" horiz-adv-x="681" 
d="M451 1338q0 46 -32 78t-78 32t-77 -32t-31 -78t31 -77.5t77 -31.5t78 31.5t32 77.5zM180.5 1175.5q-67.5 67.5 -67.5 162.5t66 163t162 68t163 -69t67 -164t-68 -161.5t-161.5 -66.5t-161 67.5z" />
    <glyph glyph-name="tilde" unicode="&#x2dc;" horiz-adv-x="681" 
d="M-115 1190q6 121 90 210t206 89q62 0 153 -29l158 -45q40 -12 63 -12q41 0 54.5 30.5t13.5 49.5h165q-13 -126 -93.5 -210.5t-192.5 -84.5q-34 0 -103 18l-168 49q-61 17 -89 17t-46 -10.5t-29.5 -24.5t-15.5 -27.5t-6 -19.5h-160z" />
    <glyph glyph-name="endash" unicode="&#x2013;" horiz-adv-x="1024" 
d="M0 678h1024v-260h-1024v260z" />
    <glyph glyph-name="emdash" unicode="&#x2014;" horiz-adv-x="2048" 
d="M266 678h1516v-260h-1516v260z" />
    <glyph glyph-name="quoteleft" unicode="&#x2018;" horiz-adv-x="681" 
d="M59 934l244 545h275l-138 -545h-381z" />
    <glyph glyph-name="quoteright" unicode="&#x2019;" horiz-adv-x="681" 
d="M600 1479l-244 -545h-276l137 545h383z" />
    <glyph glyph-name="quotesinglbase" unicode="&#x201a;" horiz-adv-x="681" 
d="M170 285h352l-215 -484h-260z" />
    <glyph glyph-name="quotedblleft" unicode="&#x201c;" 
d="M682 934l246 545h274l-137 -545h-383zM186 934l246 545h275l-138 -545h-383z" />
    <glyph glyph-name="quotedblright" unicode="&#x201d;" 
d="M1204 1479l-243 -545h-275l137 545h381zM709 1479l-244 -545h-275l138 545h381z" />
    <glyph glyph-name="quotedblbase" unicode="&#x201e;" 
d="M803 285h352l-215 -484h-260zM317 285h351l-213 -484h-260z" />
    <glyph glyph-name="dagger" unicode="&#x2020;" 
d="M162 903v256h350v320h319v-320h345v-256h-345v-903h-319v903h-350z" />
    <glyph glyph-name="daggerdbl" unicode="&#x2021;" 
d="M162 563h350v357h-350v256h350v303h319v-303h345v-256h-345v-357h345v-256h-345v-307h-319v307h-350v256z" />
    <glyph glyph-name="bullet" unicode="&#x2022;" horiz-adv-x="1024" 
d="M774 478q-109 -107 -262 -107t-262 107t-109 260t108 262.5t263.5 109.5t263 -111t107.5 -262.5t-109 -258.5z" />
    <glyph glyph-name="ellipsis" unicode="&#x2026;" horiz-adv-x="2048" 
d="M1526 305h360v-305h-360v305zM844 305h360v-305h-360v305zM162 305h360v-305h-360v305z" />
    <glyph glyph-name="perthousand" unicode="&#x2030;" horiz-adv-x="2048" 
d="M1040 1524h201l-942 -1565h-205zM1711 143q79 0 79 209q0 111 -21.5 147t-58.5 36q-78 0 -78 -196t79 -196zM1712 694q147 0 221 -93t74 -261t-80 -260t-215 -92q-136 0 -215 86q-80 86 -80 254t74 267t221 99zM1053.5 143q52.5 0 52.5 209q0 111 -21.5 147t-58.5 36
q-78 0 -78 -197q0 -137 26.5 -166t79 -29zM1027 694q146 0 221 -93t75 -261t-81 -260t-216 -92q-134 0 -214 87q-81 87 -81 254t75 266t221 99zM399 1151q0 111 -21.5 146.5t-57.5 35.5q-78 1 -78 -195t78 -196t79 209zM322 1493q146 0 220 -93t74 -261t-80 -261
q-80 -92 -214 -92q-135 0 -215 85t-80 255q0 169 74.5 268t220.5 99z" />
    <glyph glyph-name="guilsinglleft" unicode="&#x2039;" horiz-adv-x="681" 
d="M625 920l-244 -402l244 -397h-316l-256 401l254 398h318z" />
    <glyph glyph-name="guilsinglright" unicode="&#x203a;" horiz-adv-x="681" 
d="M53 121l244 401l-244 398h316l256 -402l-254 -397h-318z" />
    <glyph glyph-name="Euro" unicode="&#x20ac;" 
d="M219 678v31q0 35 4 71h-131l58 197h94q57 235 238 358t440 123q208 0 358 -57l-94 -295q-92 61 -255 61t-218.5 -68.5t-69.5 -121.5h500l-56 -197h-471q-6 -54 -6 -71v-31h451l-55 -197h-381q8 -98 81.5 -162.5t231.5 -64.5t274 47v-266q-138 -66 -360 -66
q-270 0 -431 132t-192 380h-166l56 197h100z" />
    <glyph glyph-name="trademark" unicode="&#x2122;" horiz-adv-x="1945" 
d="M844 1479h317l119 -502l117 502h315v-740h-186l8 623l-174 -623h-182l-162 623v-623h-172v740zM348 1335h-221v144h655v-144h-229v-596h-205v596z" />
    <glyph glyph-name="glyph224" horiz-adv-x="681" 
d="M496 1937h260l-246 -297h-342l-244 297h258l158 -161z" />
    <glyph glyph-name="glyph225" horiz-adv-x="681" 
d="M506 1937l246 -297h-267l-151 158l-152 -158h-266l244 297h346z" />
    <glyph glyph-name="glyph226" horiz-adv-x="681" 
d="M412 1640h-271l228 297h417z" />
    <glyph glyph-name="glyph227" horiz-adv-x="681" 
d="M-102 1937h426l219 -297h-264z" />
    <glyph glyph-name="glyph228" horiz-adv-x="681" 
d="M143 1722q-75 0 -98 -82h-160q6 121 90 210t209 89q54 0 150 -28l158 -45q43 -13 65 -13q37 0 51.5 27t14.5 53h165q-13 -126 -94 -210.5t-192 -84.5q-30 0 -103 19l-168 49q-57 16 -88 16z" />
    <glyph glyph-name="glyph229" horiz-adv-x="681" 
d="M-104 1937h350v-297h-350v297zM434 1937h350v-297h-350v297z" />
    <glyph glyph-name="glyph230" horiz-adv-x="681" 
d="M451 1789q0 46 -32 77.5t-78 31.5t-77 -31.5t-31 -77.5t31 -78t77 -32t78 32t32 78zM504 1626q-67 -67 -162.5 -67t-162 68t-66.5 162.5t66 162t162 67.5t163 -68.5t67 -163t-67 -161.5z" />
    </font>
</defs>
</svg>
